<svg width="262" height="77" viewBox="0 0 262 77" fill="none" xmlns="http://www.w3.org/2000/svg">
<path d="M28.3417 17.4097C28.3417 18.3844 28.1604 19.2969 27.7977 20.1469C27.435 20.9857 26.9363 21.7224 26.3015 22.3572C25.6781 22.9805 24.9414 23.4736 24.0913 23.8363C23.2526 24.199 22.3515 24.3803 21.3881 24.3803H0.20401V20.895H21.3881C21.8754 20.895 22.3288 20.8043 22.7482 20.623C23.1676 20.4416 23.5303 20.1923 23.8363 19.8749C24.1537 19.5576 24.403 19.1892 24.5844 18.7698C24.7657 18.3391 24.8564 17.8857 24.8564 17.4097C24.8564 16.9336 24.7657 16.4859 24.5844 16.0665C24.403 15.6472 24.1537 15.2788 23.8363 14.9614C23.5303 14.6441 23.1676 14.3947 22.7482 14.2134C22.3288 14.032 21.8754 13.9413 21.3881 13.9413H7.17468C6.22259 13.9413 5.3215 13.76 4.47142 13.3973C3.62134 13.0346 2.87893 12.5415 2.24421 11.9181C1.62081 11.2834 1.1221 10.541 0.748062 9.69093C0.385361 8.84085 0.20401 7.9341 0.20401 6.97067C0.20401 6.01858 0.385361 5.11749 0.748062 4.26741C1.1221 3.41733 1.62081 2.68059 2.24421 2.0572C2.87893 1.42247 3.62134 0.923756 4.47142 0.561054C5.3215 0.187018 6.22259 0 7.17468 0H26.6076V3.48534H7.17468C6.69864 3.48534 6.24526 3.57601 5.81455 3.75736C5.39518 3.93871 5.02681 4.18807 4.70944 4.50543C4.39208 4.8228 4.14272 5.19683 3.96137 5.62754C3.78002 6.04692 3.68935 6.49463 3.68935 6.97067C3.68935 7.44672 3.78002 7.90009 3.96137 8.3308C4.14272 8.75018 4.39208 9.11854 4.70944 9.43591C5.02681 9.75327 5.39518 10.0026 5.81455 10.184C6.24526 10.3653 6.69864 10.456 7.17468 10.456H21.3881C22.3515 10.456 23.2526 10.643 24.0913 11.0171C24.9414 11.3798 25.6781 11.8785 26.3015 12.5132C26.9363 13.1366 27.435 13.8733 27.7977 14.7234C28.1604 15.5622 28.3417 16.4576 28.3417 17.4097Z" fill="black"/>
<path d="M57.6525 24.3803H32.4391V0H57.6525V3.48534H35.9244V20.895H57.6525V24.3803ZM54.6943 13.9413H37.6586V10.456H54.6943V13.9413Z" fill="black"/>
<path d="M86.9804 12.1902C86.9804 13.3236 86.833 14.4117 86.5383 15.4545C86.255 16.4859 85.8469 17.455 85.3142 18.3618C84.7928 19.2572 84.1638 20.0789 83.427 20.827C82.6903 21.5637 81.8685 22.1985 80.9618 22.7312C80.0664 23.2526 79.0973 23.6606 78.0545 23.9553C77.0117 24.2387 75.9293 24.3803 74.8072 24.3803H60.3558V20.895H74.8072C76.0086 20.895 77.1364 20.6683 78.1905 20.2149C79.2446 19.7616 80.1627 19.1438 80.9448 18.3618C81.7382 17.5684 82.3616 16.6446 82.815 15.5905C83.2797 14.5251 83.512 13.3916 83.512 12.1902V3.48534H60.3558V0H86.9804V12.1902Z" fill="black"/>
<path d="M120.134 24.3803H116.648V17.4097H97.1983V13.9413H116.648V3.48534H104.152C102.962 3.48534 101.84 3.71769 100.786 4.1824C99.7316 4.63578 98.8135 5.25917 98.0314 6.05258C97.2494 6.83466 96.626 7.75275 96.1612 8.80685C95.7079 9.86095 95.4812 10.9887 95.4812 12.1902V24.3803H91.9958V12.1902C91.9958 11.0681 92.1375 9.9913 92.4209 8.95986C92.7156 7.9171 93.1236 6.948 93.645 6.05258C94.1777 5.14583 94.8125 4.32408 95.5492 3.58735C96.2973 2.83927 97.119 2.19888 98.0144 1.66616C98.9212 1.13344 99.8903 0.725403 100.922 0.442043C101.953 0.147348 103.03 0 104.152 0H120.134V24.3803Z" fill="black"/>
<path d="M168.146 12.1902C168.146 13.879 167.88 15.4658 167.347 16.9506C166.814 18.4354 166.055 19.7276 165.069 20.827C164.094 21.9264 162.921 22.7935 161.55 23.4283C160.178 24.063 158.654 24.3803 156.976 24.3803H148.866C147.177 24.3803 145.642 24.063 144.259 23.4283C142.876 22.7935 141.692 21.9264 140.706 20.827C139.731 19.7276 138.977 18.4354 138.444 16.9506C137.912 15.4658 137.645 13.879 137.645 12.1902C137.645 10.5127 137.912 8.93719 138.444 7.46372C138.977 5.97891 139.731 4.68678 140.706 3.58735C141.692 2.47657 142.876 1.60382 144.259 0.969093C145.642 0.323031 147.177 0 148.866 0H156.976C158.654 0 160.178 0.323031 161.55 0.969093C162.921 1.60382 164.094 2.47657 165.069 3.58735C166.055 4.68678 166.814 5.97891 167.347 7.46372C167.88 8.93719 168.146 10.5127 168.146 12.1902ZM164.661 12.1902C164.661 10.9887 164.485 9.86095 164.134 8.80685C163.782 7.75275 163.272 6.83466 162.604 6.05258C161.946 5.25917 161.142 4.63578 160.189 4.1824C159.249 3.71769 158.178 3.48534 156.976 3.48534H148.866C147.665 3.48534 146.582 3.71769 145.619 4.1824C144.667 4.63578 143.857 5.25917 143.188 6.05258C142.53 6.83466 142.02 7.75275 141.658 8.80685C141.306 9.86095 141.131 10.9887 141.131 12.1902C141.131 13.3916 141.306 14.5251 141.658 15.5905C142.02 16.6446 142.53 17.5684 143.188 18.3618C143.857 19.1438 144.667 19.7616 145.619 20.2149C146.582 20.6683 147.665 20.895 148.866 20.895H156.976C158.178 20.895 159.249 20.6683 160.189 20.2149C161.142 19.7616 161.946 19.1438 162.604 18.3618C163.272 17.5684 163.782 16.6446 164.134 15.5905C164.485 14.5251 164.661 13.3916 164.661 12.1902Z" fill="black"/>
<path d="M51.481 76.6094H44.5103V55.7314H10.439V48.7607H44.5103V27.8487H51.481V76.6094ZM6.97067 76.6094H0V27.8487H6.97067V76.6094Z" fill="#DD3126"/>
<path d="M113.605 76.6094H63.1781V27.8487H113.605V34.8193H70.1488V69.6387H113.605V76.6094ZM107.688 55.7314H73.6171V48.7607H107.688V55.7314Z" fill="#DD3126"/>
<path d="M178.551 76.6094H169.132L154.511 62.668H133.157V55.7994H161.142C162.592 55.7994 163.952 55.5273 165.222 54.9833C166.491 54.4166 167.591 53.6572 168.52 52.7051C169.472 51.753 170.22 50.6422 170.764 49.3727C171.309 48.0806 171.581 46.7092 171.581 45.2584C171.581 43.8075 171.309 42.4474 170.764 41.178C170.22 39.9085 169.472 38.8091 168.52 37.8796C167.591 36.9276 166.491 36.1795 165.222 35.6354C163.952 35.0914 162.592 34.8193 161.142 34.8193H129.246V76.6094H122.276V27.8487H161.142C163.544 27.8487 165.8 28.3134 167.908 29.2428C170.016 30.1496 171.853 31.3964 173.417 32.9832C175.004 34.5473 176.25 36.3835 177.157 38.4917C178.086 40.5999 178.551 42.8555 178.551 45.2584C178.551 47.4346 178.177 49.4974 177.429 51.4469C176.681 53.3738 175.65 55.108 174.335 56.6495C173.02 58.1683 171.467 59.4377 169.676 60.4578C167.908 61.4552 165.993 62.124 163.93 62.464L178.551 76.6094Z" fill="#DD3126"/>
<path d="M245.708 52.229C245.708 55.6067 245.175 58.7803 244.11 61.7499C243.044 64.7196 241.525 67.3038 239.553 69.5027C237.604 71.7016 235.257 73.4357 232.514 74.7052C229.771 75.9746 226.723 76.6094 223.368 76.6094H207.148C203.77 76.6094 200.699 75.9746 197.933 74.7052C195.167 73.4357 192.799 71.7016 190.826 69.5027C188.877 67.3038 187.369 64.7196 186.304 61.7499C185.239 58.7803 184.706 55.6067 184.706 52.229C184.706 48.874 185.239 45.7231 186.304 42.7761C187.369 39.8065 188.877 37.2222 190.826 35.0234C192.799 32.8018 195.167 31.0563 197.933 29.7869C200.699 28.4947 203.77 27.8487 207.148 27.8487H223.368C226.723 27.8487 229.771 28.4947 232.514 29.7869C235.257 31.0563 237.604 32.8018 239.553 35.0234C241.525 37.2222 243.044 39.8065 244.11 42.7761C245.175 45.7231 245.708 48.874 245.708 52.229ZM238.737 52.229C238.737 49.8261 238.386 47.5706 237.683 45.4624C236.98 43.3542 235.96 41.518 234.623 39.9538C233.308 38.367 231.698 37.1202 229.794 36.2135C227.913 35.2841 225.77 34.8193 223.368 34.8193H207.148C204.745 34.8193 202.58 35.2841 200.653 36.2135C198.749 37.1202 197.128 38.367 195.791 39.9538C194.476 41.518 193.456 43.3542 192.731 45.4624C192.028 47.5706 191.676 49.8261 191.676 52.229C191.676 54.6319 192.028 56.8988 192.731 59.0297C193.456 61.1379 194.476 62.9854 195.791 64.5722C197.128 66.1364 198.749 67.3718 200.653 68.2786C202.58 69.1853 204.745 69.6387 207.148 69.6387H223.368C225.77 69.6387 227.913 69.1853 229.794 68.2786C231.698 67.3718 233.308 66.1364 234.623 64.5722C235.96 62.9854 236.98 61.1379 237.683 59.0297C238.386 56.8988 238.737 54.6319 238.737 52.229ZM229.352 19.4159L216.601 24.0063L214.935 20.334L226.7 13.4313L229.352 19.4159Z" fill="#DD3126"/>
<path d="M261.587 76.6094H254.617V27.8487H261.587V76.6094Z" fill="#DD3126"/>
</svg>
